<svg xmlns="http://www.w3.org/2000/svg" viewBox="0 0 120 120">
  <!-- Aahaar app-icon lockup: आ over "haar" (Noto Sans Devanagari Bold +
       Noto Sans Bold, SIL OFL 1.1). Regenerate with brand/make-icon-mark.mjs. -->
  <path class="aa" fill="#e07a3f" transform="translate(3.12 72.27) scale(0.3273)" d="M52.90-22Q52.90-13.90 47.75-9.40Q42.60-4.90 33.70-4.90Q27-4.90 21.60-7.55Q16.20-10.20 11.60-16.45Q7-22.70 2.70-33.60L13.50-38.90Q17.90-27.30 22.15-21.85Q26.40-16.40 32-16.40Q35.60-16.40 37.65-18.20Q39.70-20 39.70-23.40Q39.70-27.40 36.20-30.90Q31.90-29.80 26.60-29.40L24.70-39.70Q32.50-40.50 35.20-42.20Q37.90-43.90 37.90-46.80Q37.90-49.30 36.20-50.55Q34.50-51.80 31.60-51.80Q25.70-51.80 19.60-48.40L15.80-59Q19.50-60.90 23.90-62.05Q28.30-63.20 33.30-63.20Q42.90-63.20 47.15-58.70Q51.40-54.20 51.40-47.50Q51.40-40.40 46.20-35.80Q49.60-35.30 53.50-35.30Q56.10-35.30 58.60-35.65Q61.10-36 63.50-36.70L63.50-51L57.20-51L57.20-62.20L86.70-62.20L86.70-51L77.40-51L77.40 0L63.50 0L63.50-25.40Q60.20-24.60 56.40-24.60Q54.60-24.60 52.70-24.80Q52.90-23.40 52.90-22M116.10-51L106.90-51L106.90 0L92.90 0L92.90-51L85.20-51L85.20-62.20L116.10-62.20"/>
  <path class="haar" fill="#1a1a1a" transform="translate(3.12 72.27) scale(0.3273)" d="M139-76L139-60.70Q139-56.20 138.80-52.85Q138.60-49.50 138.30-47.60L139.10-47.60Q141.80-51.80 145.85-53.70Q149.90-55.60 154.90-55.60Q163.70-55.60 169.10-50.85Q174.50-46.10 174.50-35.60L174.50 0L159.40 0L159.40-31.80Q159.40-43.60 150.70-43.60Q144-43.60 141.50-38.95Q139-34.30 139-25.60L139 0L123.90 0L123.90-76L139-76M213.30-55.60Q223.50-55.60 228.95-50.75Q234.40-45.90 234.40-36.40L234.40 0L223.90 0L221-7.40L220.60-7.40Q217-3 213.15-1Q209.30 1 202.40 1Q195.20 1 190.40-3.20Q185.60-7.40 185.60-16.10Q185.60-24.60 191.80-28.95Q198-33.30 210.30-33.80L219.40-34.10L219.40-35.80Q219.40-40.70 217.15-42.65Q214.90-44.60 211-44.60Q207.30-44.60 203.40-43.40Q199.50-42.20 195.70-40.50L191.30-50.80Q195.60-53 201.15-54.30Q206.70-55.60 213.30-55.60M219.40-25.30L213.70-25Q206.50-24.80 203.75-22.70Q201-20.60 201-16.80Q201-13.30 202.95-11.65Q204.90-10 208.20-10Q212.90-10 216.15-12.80Q219.40-15.60 219.40-20.80L219.40-25.30M273.20-55.60Q283.40-55.60 288.85-50.75Q294.30-45.90 294.30-36.40L294.30 0L283.80 0L280.90-7.40L280.50-7.40Q276.90-3 273.05-1Q269.20 1 262.30 1Q255.10 1 250.30-3.20Q245.50-7.40 245.50-16.10Q245.50-24.60 251.70-28.95Q257.90-33.30 270.20-33.80L279.30-34.10L279.30-35.80Q279.30-40.70 277.05-42.65Q274.80-44.60 270.90-44.60Q267.20-44.60 263.30-43.40Q259.40-42.20 255.60-40.50L251.20-50.80Q255.50-53 261.05-54.30Q266.60-55.60 273.20-55.60M279.30-25.30L273.60-25Q266.40-24.80 263.65-22.70Q260.90-20.60 260.90-16.80Q260.90-13.30 262.85-11.65Q264.80-10 268.10-10Q272.80-10 276.05-12.80Q279.30-15.60 279.30-20.80L279.30-25.30M338.90-55.60Q340.40-55.60 342.10-55.40Q343.80-55.20 344.90-55L343.40-40.90Q342.30-41.20 340.80-41.35Q339.30-41.50 337.20-41.50Q334.10-41.50 331-40.20Q327.90-38.90 325.85-35.90Q323.80-32.90 323.80-27.70L323.80 0L308.70 0L308.70-54.60L320.20-54.60L322.40-45.40L323.10-45.40Q325.50-49.60 329.65-52.60Q333.80-55.60 338.90-55.60"/>
</svg>
