<svg xmlns="http://www.w3.org/2000/svg" viewBox="0 0 120 120">
  <!-- Aahaar brand mark: आ from Noto Sans Devanagari Bold (SIL OFL 1.1).
       Regenerate with brand/extract-glyph.mjs; assets with generate-icons.mjs. -->
  <path fill="#e07a3f" d="M55.07 67.28Q55.07 73.42 51.16 76.84Q47.26 80.25 40.51 80.25Q35.43 80.25 31.33 78.24Q27.24 76.23 23.75 71.49Q20.26 66.75 17 58.48L25.19 54.46Q28.53 63.26 31.75 67.39Q34.97 71.53 39.22 71.53Q41.95 71.53 43.51 70.16Q45.06 68.80 45.06 66.22Q45.06 63.19 42.41 60.53Q39.14 61.37 35.13 61.67L33.68 53.86Q39.60 53.25 41.65 51.96Q43.69 50.67 43.69 48.47Q43.69 46.58 42.41 45.63Q41.12 44.68 38.92 44.68Q34.44 44.68 29.82 47.26L26.93 39.22Q29.74 37.78 33.08 36.91Q36.41 36.04 40.21 36.04Q47.49 36.04 50.71 39.45Q53.93 42.86 53.93 47.94Q53.93 53.33 49.99 56.81Q52.57 57.19 55.53 57.19Q57.50 57.19 59.39 56.93Q61.29 56.66 63.11 56.13L63.11 45.29L58.33 45.29L58.33 36.79L80.70 36.79L80.70 45.29L73.65 45.29L73.65 83.96L63.11 83.96L63.11 64.70Q60.61 65.31 57.72 65.31Q56.36 65.31 54.92 65.16Q55.07 66.22 55.07 67.28M103 45.29L96.02 45.29L96.02 83.96L85.41 83.96L85.41 45.29L79.57 45.29L79.57 36.79L103 36.79"/>
</svg>
